<svg width="960" height="720" viewBox="0 0 960 720" fill="none" xmlns="http://www.w3.org/2000/svg">
  <rect width="960" height="720" rx="40" fill="#0A0D12"/>
  <rect x="36" y="36" width="888" height="648" rx="30" fill="url(#bg)"/>
  <circle cx="780" cy="164" r="84" fill="#D3AE56" fill-opacity="0.14"/>
  <circle cx="154" cy="112" r="64" fill="#486E97" fill-opacity="0.18"/>
  <rect x="96" y="104" width="228" height="40" rx="20" fill="#D3AE56" fill-opacity="0.12" stroke="#D3AE56" stroke-opacity="0.35"/>
  <text x="126" y="131" fill="#F0C96A" font-family="Arial, sans-serif" font-size="22" font-weight="700">Kitchen and Support Crew</text>
  <text x="96" y="188" fill="#F5F0E5" font-family="Arial, sans-serif" font-size="54" font-weight="700">Back-of-house readiness</text>
  <text x="96" y="236" fill="#B8C0CE" font-family="Arial, sans-serif" font-size="28">Prep, clearing, dish flow, and service support aligned</text>
  <text x="96" y="272" fill="#B8C0CE" font-family="Arial, sans-serif" font-size="28">with the pace of a professional event operation.</text>

  <rect x="112" y="394" width="736" height="156" rx="26" fill="#182130" stroke="#FFFFFF" stroke-opacity="0.08"/>
  <rect x="134" y="420" width="692" height="30" rx="15" fill="#D8E0E8"/>
  <rect x="154" y="462" width="122" height="16" rx="8" fill="#F0C96A" fill-opacity="0.32"/>
  <rect x="304" y="462" width="96" height="16" rx="8" fill="#F0C96A" fill-opacity="0.22"/>
  <rect x="428" y="462" width="108" height="16" rx="8" fill="#F0C96A" fill-opacity="0.28"/>
  <rect x="564" y="462" width="90" height="16" rx="8" fill="#F0C96A" fill-opacity="0.2"/>
  <rect x="682" y="462" width="104" height="16" rx="8" fill="#F0C96A" fill-opacity="0.24"/>
  <rect x="164" y="494" width="110" height="32" rx="10" fill="#E9EEF2"/>
  <rect x="690" y="494" width="110" height="32" rx="10" fill="#E9EEF2"/>

  <circle cx="300" cy="330" r="34" fill="#F4D79A"/>
  <rect x="266" y="364" width="68" height="98" rx="24" fill="#F5F0E5"/>
  <rect x="258" y="360" width="84" height="24" rx="12" fill="#FFFFFF"/>
  <rect x="274" y="386" width="52" height="62" rx="16" fill="#D3AE56"/>
  <rect x="274" y="458" width="14" height="74" rx="7" fill="#E8ECEF"/>
  <rect x="296" y="458" width="14" height="74" rx="7" fill="#E8ECEF"/>

  <circle cx="484" cy="336" r="34" fill="#F4D79A"/>
  <rect x="450" y="370" width="68" height="92" rx="24" fill="#0F1520"/>
  <rect x="466" y="368" width="36" height="62" rx="14" fill="#D3AE56"/>
  <rect x="458" y="458" width="14" height="74" rx="7" fill="#E8ECEF"/>
  <rect x="480" y="458" width="14" height="74" rx="7" fill="#E8ECEF"/>
  <rect x="524" y="382" width="60" height="16" rx="8" fill="#D8E0E8"/>
  <rect x="546" y="360" width="16" height="60" rx="8" fill="#D8E0E8"/>

  <circle cx="676" cy="330" r="34" fill="#F4D79A"/>
  <rect x="642" y="364" width="68" height="98" rx="24" fill="#0F1520"/>
  <rect x="658" y="362" width="36" height="64" rx="14" fill="#D3AE56"/>
  <rect x="650" y="458" width="14" height="74" rx="7" fill="#E8ECEF"/>
  <rect x="672" y="458" width="14" height="74" rx="7" fill="#E8ECEF"/>
  <circle cx="748" cy="390" r="16" fill="#D3AE56"/>
  <path d="M734 390C734 382.268 740.268 376 748 376C755.732 376 762 382.268 762 390V410H734V390Z" fill="#F5F0E5"/>

  <defs>
    <linearGradient id="bg" x1="96" y1="82" x2="862" y2="650" gradientUnits="userSpaceOnUse">
      <stop stop-color="#111722"/>
      <stop offset="1" stop-color="#0D131B"/>
    </linearGradient>
  </defs>
</svg>
