<svg width="960" height="720" viewBox="0 0 960 720" fill="none" xmlns="http://www.w3.org/2000/svg">
  <rect width="960" height="720" rx="40" fill="#0A0D12"/>
  <rect x="36" y="36" width="888" height="648" rx="30" fill="url(#bg)"/>
  <circle cx="156" cy="140" r="56" fill="#D3AE56" fill-opacity="0.18"/>
  <circle cx="814" cy="118" r="72" fill="#486E97" fill-opacity="0.18"/>
  <rect x="96" y="108" width="256" height="40" rx="20" fill="#D3AE56" fill-opacity="0.12" stroke="#D3AE56" stroke-opacity="0.35"/>
  <text x="128" y="134" fill="#F0C96A" font-family="Arial, sans-serif" font-size="22" font-weight="700">Wedding Reception Service</text>
  <text x="96" y="186" fill="#F5F0E5" font-family="Arial, sans-serif" font-size="54" font-weight="700">Front-of-house staff</text>
  <text x="96" y="234" fill="#B8C0CE" font-family="Arial, sans-serif" font-size="28">Floor teams prepared for guest arrival, table service,</text>
  <text x="96" y="270" fill="#B8C0CE" font-family="Arial, sans-serif" font-size="28">welcome flow, and calm coordination during live events.</text>

  <rect x="96" y="350" width="768" height="250" rx="28" fill="#121823" stroke="#FFFFFF" stroke-opacity="0.08"/>
  <rect x="150" y="448" width="660" height="38" rx="19" fill="#E8ECEF"/>
  <rect x="180" y="498" width="140" height="20" rx="10" fill="#F0C96A" fill-opacity="0.3"/>
  <rect x="356" y="498" width="108" height="20" rx="10" fill="#F0C96A" fill-opacity="0.2"/>
  <rect x="500" y="498" width="124" height="20" rx="10" fill="#F0C96A" fill-opacity="0.24"/>
  <rect x="660" y="498" width="104" height="20" rx="10" fill="#F0C96A" fill-opacity="0.18"/>

  <circle cx="264" cy="392" r="34" fill="#F4D79A"/>
  <rect x="230" y="426" width="68" height="96" rx="24" fill="#D3AE56"/>
  <rect x="222" y="460" width="84" height="84" rx="24" fill="#0F1520"/>
  <rect x="246" y="542" width="14" height="42" rx="7" fill="#E8ECEF"/>
  <rect x="268" y="542" width="14" height="42" rx="7" fill="#E8ECEF"/>

  <circle cx="468" cy="390" r="34" fill="#F4D79A"/>
  <rect x="434" y="424" width="68" height="96" rx="24" fill="#D3AE56"/>
  <rect x="426" y="458" width="84" height="84" rx="24" fill="#0F1520"/>
  <rect x="450" y="540" width="14" height="44" rx="7" fill="#E8ECEF"/>
  <rect x="472" y="540" width="14" height="44" rx="7" fill="#E8ECEF"/>
  <rect x="506" y="442" width="38" height="14" rx="7" fill="#E8ECEF"/>
  <rect x="520" y="432" width="14" height="54" rx="7" fill="#E8ECEF"/>

  <circle cx="688" cy="392" r="34" fill="#F4D79A"/>
  <rect x="654" y="426" width="68" height="96" rx="24" fill="#D3AE56"/>
  <rect x="646" y="460" width="84" height="84" rx="24" fill="#0F1520"/>
  <rect x="670" y="542" width="14" height="42" rx="7" fill="#E8ECEF"/>
  <rect x="692" y="542" width="14" height="42" rx="7" fill="#E8ECEF"/>

  <defs>
    <linearGradient id="bg" x1="80" y1="72" x2="864" y2="648" gradientUnits="userSpaceOnUse">
      <stop stop-color="#121823"/>
      <stop offset="1" stop-color="#0E141D"/>
    </linearGradient>
  </defs>
</svg>
