<svg width="960" height="720" viewBox="0 0 960 720" fill="none" xmlns="http://www.w3.org/2000/svg">
  <rect width="960" height="720" rx="40" fill="#0A0D12"/>
  <rect x="36" y="36" width="888" height="648" rx="30" fill="url(#bg)"/>
  <circle cx="790" cy="132" r="78" fill="#D3AE56" fill-opacity="0.16"/>
  <circle cx="176" cy="564" r="96" fill="#486E97" fill-opacity="0.12"/>
  <rect x="96" y="104" width="212" height="40" rx="20" fill="#D3AE56" fill-opacity="0.12" stroke="#D3AE56" stroke-opacity="0.35"/>
  <text x="126" y="131" fill="#F0C96A" font-family="Arial, sans-serif" font-size="22" font-weight="700">Bar and Guest Flow</text>
  <text x="96" y="186" fill="#F5F0E5" font-family="Arial, sans-serif" font-size="54" font-weight="700">Service at pace</text>
  <text x="96" y="234" fill="#B8C0CE" font-family="Arial, sans-serif" font-size="28">Cocktail bars, welcome drinks, replenishment points,</text>
  <text x="96" y="270" fill="#B8C0CE" font-family="Arial, sans-serif" font-size="28">and guest-facing service delivered without losing quality.</text>

  <rect x="100" y="382" width="760" height="174" rx="24" fill="#161E2A" stroke="#FFFFFF" stroke-opacity="0.08"/>
  <rect x="124" y="414" width="712" height="28" rx="14" fill="#263244"/>
  <rect x="134" y="456" width="692" height="18" rx="9" fill="#1A2432"/>
  <rect x="150" y="490" width="100" height="42" rx="12" fill="#E9EEF2"/>
  <rect x="280" y="490" width="100" height="42" rx="12" fill="#E9EEF2"/>
  <rect x="410" y="490" width="100" height="42" rx="12" fill="#E9EEF2"/>
  <rect x="540" y="490" width="100" height="42" rx="12" fill="#E9EEF2"/>
  <rect x="670" y="490" width="100" height="42" rx="12" fill="#E9EEF2"/>

  <circle cx="274" cy="330" r="34" fill="#F4D79A"/>
  <rect x="240" y="364" width="68" height="98" rx="24" fill="#0F1520"/>
  <rect x="256" y="362" width="36" height="64" rx="14" fill="#D3AE56"/>
  <rect x="248" y="458" width="14" height="74" rx="7" fill="#E8ECEF"/>
  <rect x="270" y="458" width="14" height="74" rx="7" fill="#E8ECEF"/>
  <rect x="302" y="366" width="42" height="12" rx="6" fill="#E8ECEF"/>
  <rect x="320" y="348" width="10" height="54" rx="5" fill="#E8ECEF"/>
  <path d="M312 344H338L334 356H316L312 344Z" fill="#9FD7FF"/>

  <circle cx="486" cy="324" r="34" fill="#F4D79A"/>
  <rect x="452" y="358" width="68" height="104" rx="24" fill="#0F1520"/>
  <rect x="468" y="356" width="36" height="70" rx="14" fill="#D3AE56"/>
  <rect x="460" y="458" width="14" height="74" rx="7" fill="#E8ECEF"/>
  <rect x="482" y="458" width="14" height="74" rx="7" fill="#E8ECEF"/>
  <rect x="540" y="380" width="22" height="56" rx="8" fill="#E8ECEF"/>
  <rect x="544" y="364" width="14" height="18" rx="6" fill="#9FD7FF"/>

  <circle cx="698" cy="330" r="34" fill="#F4D79A"/>
  <rect x="664" y="364" width="68" height="98" rx="24" fill="#0F1520"/>
  <rect x="680" y="362" width="36" height="64" rx="14" fill="#D3AE56"/>
  <rect x="672" y="458" width="14" height="74" rx="7" fill="#E8ECEF"/>
  <rect x="694" y="458" width="14" height="74" rx="7" fill="#E8ECEF"/>
  <circle cx="768" cy="394" r="16" fill="#9FD7FF"/>
  <rect x="758" y="410" width="20" height="30" rx="8" fill="#E8ECEF"/>

  <defs>
    <linearGradient id="bg" x1="118" y1="78" x2="850" y2="648" gradientUnits="userSpaceOnUse">
      <stop stop-color="#111722"/>
      <stop offset="1" stop-color="#0E141D"/>
    </linearGradient>
  </defs>
</svg>
